<?xml version="1.0" encoding="UTF-8"?>
<!DOCTYPE svg PUBLIC "-//W3C//DTD SVG 1.1//EN" "http://www.w3.org/Graphics/SVG/1.1/DTD/svg11.dtd">
<!-- Creator: CorelDRAW -->
<svg xmlns="http://www.w3.org/2000/svg" xml:space="preserve" width="77mm" height="17.5798mm" version="1.1" style="shape-rendering:geometricPrecision; text-rendering:geometricPrecision; image-rendering:optimizeQuality; fill-rule:evenodd; clip-rule:evenodd"
viewBox="0 0 7700 1757.98"
 xmlns:xlink="http://www.w3.org/1999/xlink"
 xmlns:xodm="http://www.corel.com/coreldraw/odm/2003">
 <defs>
  <style type="text/css">
   <![CDATA[
    .fil0 {fill:#2B2B2A;fill-rule:nonzero}
   ]]>
  </style>
 </defs>
 <g id="Слой_x0020_1">
  <metadata id="CorelCorpID_0Corel-Layer"/>
  <path class="fil0" d="M567.71 1204.36c-132.11,0 -220.27,-84.7 -247.15,-223.73l362.19 0 0 -189.63 -359.02 0c30.65,-125.45 118.53,-203.2 243.98,-203.2 111.86,0 193.09,60.98 233.85,159.27l243.68 -88.17c-64.17,-179.51 -243.68,-287.9 -474.06,-287.9 -315.08,0 -525.23,209.85 -525.23,524.93 0,315.08 210.15,525.23 525.23,525.23 230.38,0 409.89,-108.4 474.06,-287.91l-243.68 -88.16c-40.76,98.28 -121.99,159.27 -233.85,159.27zm1527.97 199.74l345.44 0 -521.76 -782.48 501.52 -504.71 -362.49 0 -515.1 545.46 0 -545.46 -291.09 0 0 1287.19 291.09 0 0 -406.41 169.39 -169.4 383 575.81zm514.83 -1144.97l291.37 0 0 -230.38 -291.37 0 0 230.38zm10.12 1144.97l271.13 0 0 -1016.34 -271.13 0 0 1016.34zm1094.38 -894.35c-166.21,0 -291.37,64.45 -365.95,172.85 10.11,-159.27 77.75,-237.03 264.21,-274.31l301.49 -61c142.22,-33.82 220.26,-108.4 240.49,-254.09l3.47 -37.28 -254.08 -43.94 -10.12 40.47c-6.93,33.82 -27.17,54.34 -64.46,60.99l-240.49 54.35c-311.62,67.64 -460.78,284.43 -460.78,660.5 0,369.13 193.1,592.87 518.3,592.87 304.95,0 514.81,-193.09 514.81,-470.89 0,-257.55 -182.68,-440.52 -446.89,-440.52zm-67.92 687.67c-142.23,0 -237.03,-98.27 -237.03,-250.61 0,-155.81 91.34,-247.15 237.03,-247.15 145.68,0 233.85,91.34 233.85,250.61 0,152.34 -88.17,247.15 -233.85,247.15zm1162.03 223.74c318.54,0 531.87,-210.15 531.87,-525.23 0,-318.25 -210.15,-524.93 -531.87,-524.93 -318.27,0 -531.88,209.85 -531.88,524.93 0,318.55 210.15,525.23 531.88,525.23zm0 -223.74c-155.81,0 -254.1,-111.86 -254.1,-301.49 0,-189.62 98.29,-301.49 254.1,-301.49 155.8,0 254.08,111.87 254.08,301.49 0,189.63 -98.28,301.49 -254.08,301.49zm1324.48 -826.42c-139.04,0 -250.61,57.52 -328.66,159.26l-13.59 -142.5 -243.96 0 0 1355.12 271.13 0 0 -457.29c77.76,84.69 182.98,135.57 315.08,135.57 257.27,0 433.59,-210.15 433.59,-525.23 0,-318.25 -169.39,-524.93 -433.59,-524.93zm-84.7 826.42c-152.62,0 -240.5,-115.04 -240.5,-301.49 0,-186.16 87.88,-301.49 240.5,-301.49 152.34,0 243.98,115.33 243.98,301.49 0,186.45 -91.64,301.49 -243.98,301.49zm1497.05 -809.66l-772.37 0 0 1016.34 271.14 0 0 -765.43 501.23 0 0 -250.91z"/>
 </g>
</svg>
